<svg width="49.92" height="21.44" viewBox="0 0 49.92 21.44" xmlns="http://www.w3.org/2000/svg"><path style="fill:#000" d="M21.856 20.468c-3.226-1.115-6.05-3.957-6.641-6.684-.226-1.04-.226-1.04-7.72-1.04-7.495 0-7.495 0-7.495-1.28s0-1.28 7.348-1.28c4.823 0 6.48 0 7.148-.385.35-.201.427-.508.547-.975 2.649-10.367 17.185-10.367 19.834 0 .348 1.36.348 1.36 7.695 1.36s7.348 0 7.348 1.28 0 1.28-7.495 1.28c-7.494 0-7.494 0-7.72 1.04-1.093 5.04-7.683 8.47-12.85 6.684m5.74-2.465c6.55-2.232 6.55-11.806 0-14.039-7.822-2.664-13.768 6.713-7.883 12.43 2.026 1.966 5.032 2.58 7.882 1.61"/><path d="M35.224 10.185H49.92v2.56h-7.494m-34.928.003H.003v-2.56h14.695" style="fill:#000"/></svg>