<svg width="49.92" height="21.44" viewBox="0 0 49.92 21.44" xmlns="http://www.w3.org/2000/svg"><a transform="translate(0 -12)"><path style="fill:#000" d="M0 31.52c0-1.28 0-1.28 16.31-1.28 8.438 0 12.956-.003 14.768.024 1.676.024.91-.928.319-1.77-6.312-9.011 4.424-20.08 13.641-14.065 5.795 3.782 5.914 12.549.223 16.464-2.752 1.894-2.823 1.899-25.021 1.903C0 32.8 0 32.8 0 31.52m43.461-2.46c6.384-3.947 3.578-13.7-3.941-13.7-8.426 0-10.362 11.492-2.437 14.458 1.796.672 4.604.338 6.378-.759"/><path d="M-.007 31.517v-1.28h16.31s20.052 2.554 3.93 2.557l-20.24.003z" style="fill:#000"/></a></svg>