<svg width="49.92" height="21.44" viewBox="0 0 49.92 21.44" xmlns="http://www.w3.org/2000/svg"><path style="fill:#000" d="M49.915 19.513c0-1.28 0-1.28-16.31-1.28-8.438 0-12.955-.003-14.768.023-1.675.025-.909-.927-.318-1.77 6.312-9.01-4.424-20.08-13.642-14.065-5.795 3.782-5.913 12.55-.223 16.465 2.752 1.893 2.824 1.899 25.021 1.903 20.24.004 20.24.004 20.24-1.276M6.454 17.052c-6.384-3.947-3.578-13.7 3.941-13.7 8.426 0 10.363 11.493 2.437 14.459-1.796.672-4.604.338-6.378-.76"/><path d="M49.922 19.51v-1.28h-16.31s-20.052 2.553-3.93 2.556l20.24.004z" style="fill:#000"/></svg>