<svg width="236.16" height="139.52" viewBox="0 0 236.16 139.52" xmlns="http://www.w3.org/2000/svg"><path style="fill:#fff;fill-opacity:1" d="M120.019 115.825c-10.032-1.263-15.35-5.468-17.674-13.97-.64-2.348-.69-3.415-.82-18.089l-.138-15.594-7.093-.086L87.2 68v-9.6l7.12-.086 7.12-.086V41.292l.72-.178c.396-.097 2.88-.136 5.52-.086l4.8.092.085 8.556.085 8.557 12.875.083 12.875.084V68l-12.88.084-12.88.083v13.74c0 8.956.125 14.332.36 15.437 1.017 4.796 3.869 7.429 9.136 8.437 3.105.594 5.824.582 12.043-.053 2.783-.284 5.113-.462 5.18-.396.257.257 1.22 9.235 1.013 9.443-.83.829-15.923 1.608-20.353 1.05m-92.037-1.038c-.088-.229-.12-2.498-.071-5.042L28 105.12l8.72-.085 8.72-.085V48.96H28.172l-.178-.72c-.098-.396-.137-2.592-.086-4.88L28 39.2l23.128-.082 23.129-.082-.089 4.882-.088 4.882-8.715.085-8.715.085-.173.715c-.095.393-.133 12.955-.085 27.915l.088 27.2 8.8.16 8.8.16v9.92l-22.97.082c-18.633.067-22.999.003-23.128-.335m128.64 0c-.089-.23-.12-2.427-.071-4.882l.089-4.465 10.8-.084 10.8-.085V68.17l-9.2-.085-9.2-.085v-9.6h29.44l.082 23.44.082 23.44h17.264l.178.72c.098.396.137 2.592.086 4.88l-.092 4.16-25.05.082c-20.358.067-25.079.004-25.209-.335m21.146-67.451c.116-.366.853-2.058 1.639-3.76.785-1.703 2.681-5.904 4.213-9.336l2.786-6.24 5.517-.088c3.034-.048 5.517-.01 5.517.082 0 .094-2.232 4.633-4.961 10.088L187.518 48h-4.98c-4.896 0-4.978-.011-4.77-.664M45.013 29.309c.323-.425 2.891-3.375 5.707-6.556l5.12-5.784 7.32-.005c6.796-.004 7.287.034 6.88.53-.242.293-3.392 3.245-7 6.559l-6.56 6.025-6.027.001-6.026.001z"/></svg>